<svg xmlns="http://www.w3.org/2000/svg" xmlns:xlink="http://www.w3.org/1999/xlink" version="1.1" x="0px" y="0px" viewBox="0 0 100 125" enable-background="new 0 0 100 100" xml:space="preserve"><path d="M86.903,82.29V15.865c0-3.69,0-3.69-3.69-3.69H72.142V85.98h11.071C86.903,85.98,86.903,85.98,86.903,82.29z M64.761,89.671  L42.619,78.6H20.478V19.555h22.142l22.142-9.226V89.671z M57.381,52.768v-7.381c0-3.69,0-3.69-3.69-3.69H42.619v-7.381  L26.013,49.077l16.606,14.761v-7.381H53.69C57.381,56.458,57.381,56.458,57.381,52.768z M72.142,95.206V4.794  c0-5.535,0-5.535-3.69-3.69L42.619,12.174H16.787c-3.69,0-3.69,0-3.69,3.69V82.29c0,3.69,0,3.69,3.69,3.69h25.832l25.832,12.916  C72.142,100.742,72.142,100.742,72.142,95.206z"/><text x="0" y="115" fill="#000000" font-size="5px" font-weight="bold" font-family="'Helvetica Neue', Helvetica, Arial-Unicode, Arial, Sans-serif">Created by NeueDeutsche</text><text x="0" y="120" fill="#000000" font-size="5px" font-weight="bold" font-family="'Helvetica Neue', Helvetica, Arial-Unicode, Arial, Sans-serif">from the Noun Project</text></svg>